#N canvas 0 136 450 300 10;
#X obj 12 141 *~;
#X obj 87 141 *~;
#X obj 102 70 random_pan;
#X obj 12 46 sample_controller \$1 44100;
#X obj 12 70 tabread~ \$1;
#X obj 12 18 inlet;
#X text 51 17 Wheel speed;
#X obj 12 167 outlet~;
#X obj 87 167 outlet~;
#X connect 0 0 7 0;
#X connect 1 0 8 0;
#X connect 2 0 0 1;
#X connect 2 1 1 1;
#X connect 3 0 4 0;
#X connect 3 1 2 0;
#X connect 4 0 0 0;
#X connect 4 0 1 0;
#X connect 5 0 3 0;
