#N canvas 684 334 753 339 10;
#X declare -lib mrpeach;
#X obj 13 11 cnv 15 130 100 empty empty OSC 20 12 0 14 -204786 -1 0
;
#X obj 30 58 unpackOSC;
#X obj 30 32 udpreceive 5006;
#X obj 30 88 route /speed;
#X obj 30 127 unpack f f;
#X obj 344 62 cnv 15 380 160 empty empty empty 20 12 0 14 -262130 -66577
0;
#X obj 532 142 *~;
#X obj 532 170 dac~;
#X obj 561 142 *~;
#N canvas 1402 748 397 273 init 0;
#X obj 12 40 loadbang;
#X obj 87 113 soundfiler;
#X obj 12 15 inlet;
#X msg 87 154 \; pd dsp 1;
#X msg 106 89 read -resize audio/elections.wav elections;
#X msg 87 206 1;
#X obj 87 228 s init_master_speed;
#X msg 87 65 read -resize audio/loop.wav drumsL drumsR;
#X connect 0 0 7 0;
#X connect 0 0 3 0;
#X connect 0 0 4 0;
#X connect 0 0 5 0;
#X connect 2 0 0 0;
#X connect 4 0 1 0;
#X connect 5 0 6 0;
#X connect 7 0 1 0;
#X restore 656 120 pd init;
#X obj 656 86 bng 25 250 50 0 empty empty empty 17 7 0 10 -262144 -1
-1;
#X obj 620 161 import mrpeach;
#X obj 532 72 catch~ outL;
#X obj 561 98 catch~ outR;
#X obj 360 97 hsl 128 15 0 1 0 0 empty empty Master_volume -2 -8 0
20 -262144 -1 -1 6100 1;
#X obj 360 148 hsl 128 15 0.2 5 1 0 empty init_master_speed Master_speed
-2 -8 0 20 -262144 -1 -1 6350 1;
#X floatatom 357 172 5 0 0 0 - - -;
#X obj 357 196 s master_speed;
#X obj 14 162 cnv 15 300 160 empty empty Cassette_players 20 12 0 14
-232576 -66577 0;
#N canvas 751 736 436 246 drums 0;
#X obj 9 72 phasor~;
#X obj 9 11 inlet;
#X text 49 10 Wheel speed;
#X obj 9 175 throw~ outL;
#X obj 119 175 throw~ outR;
#X obj 239 62 expr size("$s1");
#X text 245 76 Num of samples in table;
#X text 245 122 Length in seconds;
#X obj 239 10 loadbang;
#X msg 239 35 symbol drumsL;
#X obj 239 107 / 44100;
#X obj 9 46 /;
#X obj 9 102 *~;
#X obj 331 184 table drumsL;
#X obj 331 203 table drumsR;
#X obj 9 143 tabread~ drumsL;
#X obj 119 143 tabread~ drumsR;
#X connect 0 0 12 0;
#X connect 1 0 11 0;
#X connect 5 0 10 0;
#X connect 5 0 12 1;
#X connect 8 0 9 0;
#X connect 9 0 5 0;
#X connect 10 0 11 1;
#X connect 11 0 0 0;
#X connect 12 0 15 0;
#X connect 12 0 16 0;
#X connect 15 0 3 0;
#X connect 16 0 4 0;
#X restore 30 288 pd drums;
#N canvas 747 611 389 203 zero_filter 0;
#X obj 11 133 *;
#X obj 11 81 t f f;
#X obj 38 106 > 0.1;
#X obj 11 49 inlet;
#X obj 11 168 outlet;
#X text 11 12 Make sure that zero is really zero \, without float precision
errors!;
#X connect 0 0 4 0;
#X connect 1 0 0 0;
#X connect 1 1 2 0;
#X connect 2 0 0 1;
#X connect 3 0 1 0;
#X restore 30 188 pd zero_filter;
#N canvas 747 611 389 203 zero_filter 0;
#X obj 11 133 *;
#X obj 11 81 t f f;
#X obj 38 106 > 0.1;
#X obj 11 49 inlet;
#X obj 11 168 outlet;
#X text 11 12 Make sure that zero is really zero \, without float precision
errors!;
#X connect 0 0 4 0;
#X connect 1 0 0 0;
#X connect 1 1 2 0;
#X connect 2 0 0 1;
#X connect 3 0 1 0;
#X restore 172 188 pd zero_filter;
#N canvas 662 646 364 219 elections 0;
#X obj 19 20 inlet;
#X text 62 20 Wheel speed;
#X obj 19 82 phasor~;
#X obj 19 173 throw~ outL;
#X obj 164 181 table elections;
#X obj 19 141 tabread~ elections;
#X obj 196 67 expr size("$s1");
#X msg 196 40 symbol elections;
#X obj 19 111 *~;
#X text 202 81 Num of samples in table;
#X text 202 127 Length in seconds;
#X obj 19 56 /;
#X obj 196 112 / 22050;
#X obj 196 15 loadbang;
#X connect 0 0 11 0;
#X connect 2 0 8 0;
#X connect 5 0 3 0;
#X connect 6 0 8 1;
#X connect 6 0 12 0;
#X connect 7 0 6 0;
#X connect 8 0 5 0;
#X connect 11 0 2 0;
#X connect 12 0 11 1;
#X connect 13 0 7 0;
#X restore 172 288 pd elections;
#X obj 45 211 r master_speed;
#X obj 187 211 r master_speed;
#X text 98 127 Unpack OSC message;
#X floatatom 172 262 5 0 0 0 - - -;
#X floatatom 30 262 5 0 0 0 - - -;
#X obj 172 233 *;
#X obj 30 233 *;
#X connect 1 0 3 0;
#X connect 2 0 1 0;
#X connect 3 0 4 0;
#X connect 4 0 20 0;
#X connect 4 1 21 0;
#X connect 6 0 7 0;
#X connect 8 0 7 1;
#X connect 10 0 9 0;
#X connect 12 0 6 0;
#X connect 13 0 8 0;
#X connect 14 0 6 1;
#X connect 14 0 8 1;
#X connect 15 0 16 0;
#X connect 16 0 17 0;
#X connect 20 0 29 0;
#X connect 21 0 28 0;
#X connect 23 0 29 1;
#X connect 24 0 28 1;
#X connect 26 0 22 0;
#X connect 27 0 19 0;
#X connect 28 0 26 0;
#X connect 29 0 27 0;
