#N canvas 846 741 753 339 10;
#X declare -lib mrpeach;
#X obj 13 11 cnv 15 130 100 empty empty OSC 20 12 0 14 -204786 -1 0
;
#X obj 30 58 unpackOSC;
#X obj 30 32 udpreceive 5006;
#X obj 30 88 route /speed;
#X obj 14 162 cnv 15 500 160 empty empty Cassette_players 20 12 0 14
-232576 -66577 0;
#N canvas 461 699 398 145 drums 0;
#X obj 9 11 inlet;
#X text 49 10 Wheel speed;
#X obj 9 112 throw~ outL;
#X obj 119 112 throw~ outR;
#X obj 302 42 table drumsL;
#X obj 302 61 table drumsR;
#X obj 9 80 tabread~ drumsL;
#X obj 119 80 tabread~ drumsR;
#X obj 9 41 sample_controller drumsL 44100;
#X connect 0 0 8 0;
#X connect 6 0 2 0;
#X connect 7 0 3 0;
#X connect 8 0 7 0;
#X connect 8 0 6 0;
#X restore 30 288 pd drums;
#N canvas 438 659 325 192 elections 0;
#X obj 19 18 inlet;
#X text 62 18 Wheel speed;
#X obj 199 103 table elections;
#X obj 18 103 throw~ outL;
#X obj 26 124 throw~ outR;
#X obj 19 75 tabread~ elections;
#X obj 19 47 sample_controller elections 22050;
#X connect 0 0 6 0;
#X connect 5 0 3 0;
#X connect 5 0 4 0;
#X connect 6 0 5 0;
#X restore 377 288 pd elections;
#X obj 45 211 r master_speed;
#X obj 392 211 r master_speed;
#X text 110 127 Unpack OSC message;
#X floatatom 377 262 5 0 0 0 - - -;
#X floatatom 30 262 5 0 0 0 - - -;
#X obj 377 233 *;
#X obj 30 233 *;
#X obj 349 14 cnv 15 380 160 empty empty empty 20 12 0 14 -262130 -66577
0;
#X obj 537 94 *~;
#X obj 537 122 dac~;
#X obj 566 94 *~;
#N canvas 276 606 809 442 init 1;
#X obj 250 47 loadbang;
#X obj 307 355 soundfiler;
#X obj 250 22 inlet;
#X msg 42 121 \; pd dsp 1;
#X obj 42 195 s init_master_speed;
#X msg 307 108 read -resize audio/drums.wav drumsL drumsR;
#X obj 330 298 list;
#X msg 330 142 elections;
#X msg 348 166 tenor_sax;
#X msg 361 191 alto_sax;
#X msg 370 216 flute;
#X msg 379 241 bassoon;
#X text 361 89 Load audio files to buffers;
#X text 42 60 Set general settings;
#X obj 194 144 s late_loadbang;
#X obj 250 74 t b b;
#X msg 473 240 bassoon;
#X msg 445 167 cello;
#X msg 454 192 double_bass;
#X msg 463 217 horn;
#X msg 432 142 baritone_sax;
#X msg 42 173 0.25;
#X msg 330 322 read -resize audio/\$1.wav \$1;
#X connect 0 0 15 0;
#X connect 2 0 0 0;
#X connect 5 0 1 0;
#X connect 6 0 22 0;
#X connect 7 0 6 0;
#X connect 8 0 6 0;
#X connect 9 0 6 0;
#X connect 10 0 6 0;
#X connect 11 0 6 0;
#X connect 15 0 14 0;
#X connect 15 1 5 0;
#X connect 15 1 7 0;
#X connect 15 1 8 0;
#X connect 15 1 9 0;
#X connect 15 1 10 0;
#X connect 15 1 11 0;
#X connect 15 1 21 0;
#X connect 15 1 3 0;
#X connect 15 1 20 0;
#X connect 15 1 17 0;
#X connect 15 1 18 0;
#X connect 15 1 19 0;
#X connect 15 1 16 0;
#X connect 16 0 6 0;
#X connect 17 0 6 0;
#X connect 18 0 6 0;
#X connect 19 0 6 0;
#X connect 20 0 6 0;
#X connect 21 0 4 0;
#X connect 22 0 1 0;
#X restore 661 72 pd init;
#X obj 661 38 bng 25 250 50 0 empty empty empty 17 7 0 10 -262144 -1
-1;
#X obj 625 113 import mrpeach;
#X obj 537 24 catch~ outL;
#X obj 566 50 catch~ outR;
#X obj 365 49 hsl 128 15 0 1 0 0 empty empty Master_volume -2 -8 0
20 -262144 -1 -1 0 1;
#X obj 365 100 hsl 128 15 0.1 2 1 0 empty init_master_speed Master_speed
-2 -8 0 20 -262144 -1 -1 3884 1;
#X floatatom 362 124 5 0 0 0 - - -;
#X obj 362 148 s master_speed;
#X obj 225 211 r master_speed;
#X floatatom 210 262 5 0 0 0 - - -;
#X obj 210 233 *;
#X obj 30 127 unpack f f f;
#X obj 377 188 smoothing;
#N canvas 839 267 592 455 cluster 0;
#X obj 16 18 inlet;
#X text 54 19 Wheel speed;
#X obj 322 74 table tenor_sax;
#X obj 322 93 table alto_sax;
#X obj 322 112 table flute;
#X obj 322 131 table bassoon;
#X obj 16 74 cluster_instrument tenor_sax;
#X obj 32 93 cluster_instrument alto_sax;
#X obj 48 112 cluster_instrument flute;
#X obj 64 131 cluster_instrument bassoon;
#X obj 16 347 throw~ outL;
#X obj 181 349 throw~ outR;
#X obj 16 319 freeverb~;
#X obj 180 319 freeverb~;
#X text 240 316 Couldn't made the reverb wide enough. Using 2 reverbs
instead;
#X obj 322 169 table cello;
#X obj 322 188 table double_bass;
#X obj 322 207 table horn;
#X obj 322 226 table trumpet;
#X obj 96 169 cluster_instrument cello;
#X obj 112 188 cluster_instrument double_bass;
#X obj 128 207 cluster_instrument horn;
#X obj 144 226 cluster_instrument trumpet;
#X obj 80 150 cluster_instrument baritone_sax;
#X obj 322 150 table baritone_sax;
#X obj 16 291 *~ 0.8;
#X obj 181 291 *~ 0.8;
#X connect 0 0 6 0;
#X connect 0 0 7 0;
#X connect 0 0 8 0;
#X connect 0 0 9 0;
#X connect 0 0 19 0;
#X connect 0 0 20 0;
#X connect 0 0 21 0;
#X connect 0 0 22 0;
#X connect 6 0 25 0;
#X connect 6 1 26 0;
#X connect 7 0 25 0;
#X connect 7 1 26 0;
#X connect 8 0 25 0;
#X connect 8 1 26 0;
#X connect 9 0 25 0;
#X connect 9 1 26 0;
#X connect 12 0 10 0;
#X connect 13 0 11 0;
#X connect 19 0 25 0;
#X connect 19 1 26 0;
#X connect 20 0 25 0;
#X connect 20 1 26 0;
#X connect 21 0 25 0;
#X connect 21 1 26 0;
#X connect 22 1 26 0;
#X connect 23 0 25 0;
#X connect 23 1 26 0;
#X connect 25 0 12 0;
#X connect 26 0 13 0;
#X restore 210 288 pd cluster;
#X obj 30 188 smoothing;
#X obj 210 188 smoothing;
#X connect 1 0 3 0;
#X connect 2 0 1 0;
#X connect 3 0 30 0;
#X connect 7 0 13 1;
#X connect 8 0 12 1;
#X connect 10 0 6 0;
#X connect 11 0 5 0;
#X connect 12 0 10 0;
#X connect 13 0 11 0;
#X connect 15 0 16 0;
#X connect 17 0 16 1;
#X connect 19 0 18 0;
#X connect 21 0 15 0;
#X connect 22 0 17 0;
#X connect 23 0 15 1;
#X connect 23 0 17 1;
#X connect 24 0 25 0;
#X connect 25 0 26 0;
#X connect 27 0 29 1;
#X connect 28 0 32 0;
#X connect 29 0 28 0;
#X connect 30 0 33 0;
#X connect 30 1 34 0;
#X connect 30 2 31 0;
#X connect 31 0 12 0;
#X connect 33 0 13 0;
#X connect 34 0 29 0;
