#N canvas 229 266 450 300 10;
#X obj 0 47 inlet;
#X text 40 47 Bang inlet;
#X obj 0 230 outlet~;
#X obj 113 230 outlet~;
#X text 46 229 Left amp;
#X text 159 229 Right amp;
#X obj 0 75 random 100;
#X obj 0 101 / 100;
#X obj 0 198 line~;
#X obj 0 173 pack f 5;
#X obj 113 125 * -1;
#X obj 113 147 + 1;
#X obj 113 198 line~;
#X obj 113 173 pack f 5;
#X text 64 14 Smoothed random stereo panning generator;
#X obj 185 88 hsl 61 15 0 1 0 0 empty empty empty -2 -8 0 10 -262144
-1 -1 0 1;
#X connect 0 0 6 0;
#X connect 6 0 7 0;
#X connect 7 0 9 0;
#X connect 7 0 10 0;
#X connect 8 0 2 0;
#X connect 9 0 8 0;
#X connect 10 0 11 0;
#X connect 11 0 13 0;
#X connect 11 0 15 0;
#X connect 12 0 3 0;
#X connect 13 0 12 0;
#X coords 0 -1 1 1 70 35 1 180 70;
