#N canvas 260 752 450 300 10;
#X obj 17 128 phasor~;
#X obj 201 99 expr size("$s1");
#X text 207 113 Num of samples in table;
#X text 207 151 Length in seconds;
#X obj 17 102 /;
#X obj 17 158 *~;
#X obj 17 64 inlet;
#X obj 17 211 outlet~;
#X text 15 13 Phasor sampler controller - Connects to a tabread to
play a sample in required speed;
#X text 50 63 Speed;
#X text 137 63 Phase;
#X obj 104 64 inlet;
#X obj 201 73 symbol \$1;
#X obj 201 136 / \$2;
#X obj 201 45 r late_loadbang;
#X obj 141 211 outlet;
#X text 181 210 Loop ended;
#X text 63 210 Phasor out;
#X obj 141 189 threshold~ 0.99 0 0.5 0;
#X connect 0 0 5 0;
#X connect 0 0 18 0;
#X connect 1 0 5 1;
#X connect 1 0 13 0;
#X connect 4 0 0 0;
#X connect 5 0 7 0;
#X connect 6 0 4 0;
#X connect 11 0 0 1;
#X connect 12 0 1 0;
#X connect 13 0 4 1;
#X connect 14 0 12 0;
#X connect 18 0 15 0;
